# xmcd CD database file
#
# Track frame offsets:
#	150
#	23644
#	38124
#	58151
#	73453
#	111079
#	130547
#	148884
#	172100
#	204469
#	226878
#	246234
#	265408
#	295379
#	313973
#	328554
#
# Disc length: 4660 seconds
#
# Revision: 2
# Processed by: cddbd v1.4PL0 Copyright (c) Steve Scherf et al.
# Submitted via: CDex 1.50
#
DISCID=fd123210
DTITLE=Various Artist - Margarita Caliente 12
DYEAR=2002
DGENRE=Salsa
TTITLE0=Havana Express - Gangster's paradise
TTITLE1=Havana Mambo - La fiesta (Changuy)
TTITLE2=Havana Express - Maria Cristina
TTITLE3=Alfredo Naranjo y el Guaieo - Bravo rumbero
TTITLE4=Toni Prez - Picadillo
TTITLE5=La Sonora Carruseles - Hasta que se rompa el cuero
TTITLE6=La Sonora Carruseles - Ojitos chinos
TTITLE7=Fruko y sus Tesos - El aguardientero
TTITLE8=Saulo Sanchez - El cantante
TTITLE9=Los Nemus del Pacifico - Acquí no ha pasado nada
TTITLE10=Saulo Sanchez - Semilla de odio
TTITLE11=Saulo Sanchez - Carcelero
TTITLE12=Watussi - Malunga
TTITLE13=Los chicos de la calle - Dulce sabor
TTITLE14=Gemelos Son - Quién te va a querer
TTITLE15=Sweet Jam  - My way
EXTD=YEAR: 2002
EXTT0=
EXTT1=
EXTT2=
EXTT3=
EXTT4=
EXTT5=
EXTT6=
EXTT7=
EXTT8=
EXTT9=
EXTT10=
EXTT11=
EXTT12=
EXTT13=
EXTT14=
EXTT15=
PLAYORDER=
